<svg id="katman_1" data-name="katman 1" xmlns="http://www.w3.org/2000/svg" xmlns:xlink="http://www.w3.org/1999/xlink" viewBox="0 0 857.36 372.62"><defs><style>.cls-1{fill:url(#linear-gradient);}.cls-2{font-size:84.28px;fill:#fff;font-family:MyriadPro-Regular, Myriad Pro;}.cls-3{letter-spacing:-0.01em;}.cls-4{fill:url(#linear-gradient-2);}.cls-5{fill:url(#linear-gradient-3);}.cls-6{fill:url(#linear-gradient-4);}.cls-7{fill:url(#linear-gradient-5);}.cls-8{fill:url(#linear-gradient-6);}.cls-9{fill:url(#linear-gradient-7);}.cls-10{fill:url(#linear-gradient-8);}.cls-11{fill:url(#linear-gradient-9);}.cls-12{fill:url(#linear-gradient-10);}.cls-13{fill:url(#linear-gradient-11);}.cls-14{fill:url(#linear-gradient-12);}.cls-15{fill:url(#linear-gradient-13);}</style><linearGradient id="linear-gradient" x1="577.07" y1="442.14" x2="577.07" y2="442.14" gradientUnits="userSpaceOnUse"><stop offset="0" stop-color="#79a2d6" stop-opacity="0"/><stop offset="1" stop-color="#79a2d6"/></linearGradient><linearGradient id="linear-gradient-2" x1="329.02" y1="34.67" x2="296.87" y2="2.51" gradientUnits="userSpaceOnUse"><stop offset="0" stop-color="#5dc5f1" stop-opacity="0"/><stop offset="1" stop-color="#5dc5f1"/></linearGradient><linearGradient id="linear-gradient-3" x1="322.29" y1="28.2" x2="304.9" y2="10.25" gradientUnits="userSpaceOnUse"><stop offset="0" stop-color="#5dc5f1"/><stop offset="1" stop-color="#528cca"/></linearGradient><linearGradient id="linear-gradient-4" x1="286.62" y1="64.65" x2="254.46" y2="32.49" xlink:href="#linear-gradient-2"/><linearGradient id="linear-gradient-5" x1="279.89" y1="58.18" x2="262.49" y2="40.23" xlink:href="#linear-gradient-3"/><linearGradient id="linear-gradient-6" x1="297.26" y1="30.21" x2="254.78" y2="-12.28" xlink:href="#linear-gradient-2"/><linearGradient id="linear-gradient-7" x1="288.37" y1="21.66" x2="265.39" y2="-2.05" xlink:href="#linear-gradient-3"/><linearGradient id="linear-gradient-8" x1="345.36" y1="129.03" x2="247.4" y2="31.06" xlink:href="#linear-gradient-2"/><linearGradient id="linear-gradient-9" x1="14.93" y1="340.03" x2="72.14" y2="340.03" gradientUnits="userSpaceOnUse"><stop offset="0" stop-color="#79a2d6"/><stop offset="1" stop-color="#536bb1"/></linearGradient><linearGradient id="linear-gradient-10" x1="62.09" y1="377.24" x2="7.36" y2="322.5" gradientUnits="userSpaceOnUse"><stop offset="0" stop-color="#528cca"/><stop offset="1" stop-color="#305ca8"/></linearGradient><linearGradient id="linear-gradient-11" x1="403.38" y1="113.18" x2="340.09" y2="49.89" xlink:href="#linear-gradient-2"/><linearGradient id="linear-gradient-12" x1="247.46" y1="287.03" x2="304.67" y2="287.03" gradientTransform="matrix(-1, 0, 0, 1, 391.56, 0)" xlink:href="#linear-gradient-9"/><linearGradient id="linear-gradient-13" x1="294.62" y1="324.24" x2="239.89" y2="269.51" gradientTransform="matrix(-1, 0, 0, 1, 391.56, 0)" xlink:href="#linear-gradient-10"/></defs><path class="cls-1" d="M577.07,442.14" transform="translate(260.29 -228.99)"/><text class="cls-2" transform="translate(426.76 111.04)"><tspan class="cls-3">M</tspan><tspan x="66.92" y="0">ARSİZWEB</tspan></text><text x="260.29" y="-228.99"/><polygon class="cls-4" points="329.65 47.48 332.87 26.33 320.45 13.91 308.26 26.09 329.65 47.48"/><rect class="cls-5" x="307.75" y="13.4" width="13.28" height="13.28" rx="0.99"/><polygon class="cls-6" points="287.24 77.46 290.46 56.31 278.05 43.9 265.86 56.07 287.24 77.46"/><rect class="cls-7" x="265.34" y="43.38" width="13.28" height="13.28" rx="0.99"/><polygon class="cls-8" points="298.09 47.13 302.35 19.19 285.94 2.79 269.83 18.88 298.09 47.13"/><rect class="cls-9" x="269.16" y="2.11" width="17.55" height="17.55" rx="1.3"/><polygon class="cls-10" points="330.76 54.24 295.87 109.35 323.78 167.63 355.22 199.07 363.7 87.18 330.76 54.24"/><path class="cls-11" d="M14.93,340l48.29-56.27a5.07,5.07,0,0,1,8.92,3.3v13.24a15.11,15.11,0,0,1-3.64,9.84L42.85,340,68.5,369.92a15.11,15.11,0,0,1,3.64,9.83V393a5.07,5.07,0,0,1-8.92,3.3Z" transform="translate(260.29 -228.99)"/><path class="cls-12" d="M14.93,340,63.22,396.3a5.07,5.07,0,0,0,8.92-3.3V379.75a15.11,15.11,0,0,0-3.64-9.83L42.85,340Z" transform="translate(260.29 -228.99)"/><polygon class="cls-13" points="404.39 58.05 492.42 146.07 380.13 146.07 348.69 114.63 404.39 58.05"/><path class="cls-14" d="M144.1,287,95.81,230.77a5.07,5.07,0,0,0-8.92,3.3v13.24a15.17,15.17,0,0,0,3.64,9.84L116.18,287,90.54,316.92a15.12,15.12,0,0,0-3.65,9.84V340a5.07,5.07,0,0,0,8.92,3.3Z" transform="translate(260.29 -228.99)"/><path class="cls-15" d="M144.1,287,95.81,343.3a5.07,5.07,0,0,1-8.92-3.3V326.76a15.12,15.12,0,0,1,3.65-9.84L116.18,287Z" transform="translate(260.29 -228.99)"/></svg>