<svg xmlns="http://www.w3.org/2000/svg" xmlns:xlink="http://www.w3.org/1999/xlink" viewBox="0 0 786.14 341.67"><defs><style>.cls-1{fill:url(#linear-gradient);}.cls-2{font-size:77.28px;fill:#fff;font-family:MyriadPro-Regular, Myriad Pro;letter-spacing:-0.01em;}.cls-3{letter-spacing:0em;}.cls-4{fill:url(#linear-gradient-2);}.cls-5{fill:url(#linear-gradient-3);}.cls-6{fill:url(#linear-gradient-4);}.cls-7{fill:url(#linear-gradient-5);}.cls-8{fill:url(#linear-gradient-6);}.cls-9{fill:url(#linear-gradient-7);}.cls-10{fill:url(#linear-gradient-8);}.cls-11{fill:url(#linear-gradient-9);}.cls-12{fill:url(#linear-gradient-10);}.cls-13{fill:url(#linear-gradient-11);}.cls-14{fill:url(#linear-gradient-12);}.cls-15{fill:url(#linear-gradient-13);}</style><linearGradient id="linear-gradient" x1="552.37" y1="370.16" x2="552.37" y2="370.16" gradientUnits="userSpaceOnUse"><stop offset="0" stop-color="#83a6f7" stop-opacity="0"/><stop offset="1" stop-color="#83a6f7"/></linearGradient><linearGradient id="linear-gradient-2" x1="301.69" y1="31.79" x2="272.21" y2="2.3" gradientUnits="userSpaceOnUse"><stop offset="0" stop-color="#83cbf7" stop-opacity="0"/><stop offset="1" stop-color="#83cbf7"/></linearGradient><linearGradient id="linear-gradient-3" x1="295.49" y1="25.82" x2="279.61" y2="9.43" gradientUnits="userSpaceOnUse"><stop offset="0" stop-color="#83cbf7"/><stop offset="1" stop-color="#5f94f7"/></linearGradient><linearGradient id="linear-gradient-4" x1="262.81" y1="59.28" x2="233.32" y2="29.79" xlink:href="#linear-gradient-2"/><linearGradient id="linear-gradient-5" x1="256.61" y1="53.32" x2="240.73" y2="36.93" xlink:href="#linear-gradient-3"/><linearGradient id="linear-gradient-6" x1="272.57" y1="27.7" x2="233.62" y2="-11.26" xlink:href="#linear-gradient-2"/><linearGradient id="linear-gradient-7" x1="264.38" y1="19.82" x2="243.4" y2="-1.83" xlink:href="#linear-gradient-3"/><linearGradient id="linear-gradient-8" x1="316.67" y1="118.31" x2="226.85" y2="28.48" xlink:href="#linear-gradient-2"/><linearGradient id="linear-gradient-9" x1="36.92" y1="276.53" x2="89.38" y2="276.53" gradientUnits="userSpaceOnUse"><stop offset="0" stop-color="#83a6f7"/><stop offset="1" stop-color="#5f73f7"/></linearGradient><linearGradient id="linear-gradient-10" x1="80.17" y1="310.64" x2="29.98" y2="260.46" gradientUnits="userSpaceOnUse"><stop offset="0" stop-color="#5f94f7"/><stop offset="1" stop-color="#3c5cba"/></linearGradient><linearGradient id="linear-gradient-11" x1="369.87" y1="103.78" x2="311.84" y2="45.75" xlink:href="#linear-gradient-2"/><linearGradient id="linear-gradient-12" x1="271.26" y1="227.94" x2="323.72" y2="227.94" gradientTransform="matrix(-1, 0, 0, 1, 426.62, 0)" xlink:href="#linear-gradient-9"/><linearGradient id="linear-gradient-13" x1="314.5" y1="262.05" x2="264.32" y2="211.86" gradientTransform="matrix(-1, 0, 0, 1, 426.62, 0)" xlink:href="#linear-gradient-10"/></defs><g id="OBJECTS"><path class="cls-1" d="M552.37,370.16" transform="translate(215.44 -174.71)"/><text class="cls-2" transform="translate(391.31 101.82)">M<tspan class="cls-3" x="61.36" y="0">ARSİZWEB</tspan></text><text x="215.44" y="-174.71"/><polygon class="cls-4" points="302.26 43.53 305.22 24.14 293.84 12.76 282.66 23.92 302.26 43.53"/><rect class="cls-5" x="282.19" y="12.29" width="12.18" height="12.18" rx="0.99"/><polygon class="cls-6" points="263.38 71.02 266.34 51.63 254.95 40.25 243.77 51.41 263.38 71.02"/><rect class="cls-7" x="243.3" y="39.78" width="12.18" height="12.18" rx="0.99"/><polygon class="cls-8" points="273.33 43.22 277.23 17.6 262.19 2.56 247.42 17.31 273.33 43.22"/><rect class="cls-9" x="246.8" y="1.94" width="16.09" height="16.09" rx="1.3"/><polygon class="cls-10" points="303.29 49.74 271.29 100.26 296.89 153.71 325.72 182.53 333.49 79.94 303.29 49.74"/><path class="cls-11" d="M36.92,276.53,81.2,224.94a4.65,4.65,0,0,1,8.18,3v12.14a13.87,13.87,0,0,1-3.34,9l-23.51,27.4L86,303.93a13.91,13.91,0,0,1,3.34,9V325.1a4.65,4.65,0,0,1-8.18,3Z" transform="translate(215.44 -174.71)"/><path class="cls-12" d="M36.92,276.53l44.28,51.6a4.65,4.65,0,0,0,8.18-3V313a13.91,13.91,0,0,0-3.34-9l-23.51-27.4Z" transform="translate(215.44 -174.71)"/><polygon class="cls-13" points="370.8 53.23 451.52 133.94 348.55 133.94 319.73 105.11 370.8 53.23"/><path class="cls-14" d="M155.36,227.94l-44.27-51.6a4.65,4.65,0,0,0-8.18,3v12.15a13.86,13.86,0,0,0,3.34,9l23.51,27.4-23.51,27.4a13.82,13.82,0,0,0-3.34,9V276.5a4.65,4.65,0,0,0,8.18,3Z" transform="translate(215.44 -174.71)"/><path class="cls-15" d="M155.36,227.94l-44.27,51.59a4.65,4.65,0,0,1-8.18-3V264.36a13.82,13.82,0,0,1,3.34-9l23.51-27.4Z" transform="translate(215.44 -174.71)"/></g></svg>